<svg width="39" height="54" viewBox="0 0 39 54" fill="none" xmlns="http://www.w3.org/2000/svg">
<path d="M0.199951 26.8688C0.199951 20.3688 0.199951 13.7688 0.199951 7.26877C0.199951 6.76877 0.199951 6.26877 0.199951 5.76877C0.199951 3.86877 0.399952 1.96877 2.39995 0.868769C4.39995 -0.231231 5.99995 0.768767 7.59995 1.96877C17.1999 8.96877 26.9 15.9688 36.5 22.9688C39.8 25.3688 39.8 28.0688 36.5 30.5688C26.7 37.6688 17 44.6688 7.29995 51.7688C6.59995 52.2688 5.79995 52.8688 4.89995 52.9688C2.79995 53.3688 0.799952 52.1688 0.399952 50.0688C0.199952 49.1688 0.199951 48.1688 0.199951 47.1688C0.199951 40.3688 0.199951 33.6688 0.199951 26.8688Z" fill="#FFD5E4"/>
</svg>
