<svg width="66" height="44" viewBox="0 0 66 44" fill="none" xmlns="http://www.w3.org/2000/svg">
<path d="M49.8001 4.82535e-05L49.8001 13.1C58.2001 13.1 65.1001 20 65.1001 28.5C65.1001 37 58.2001 43.8 49.8001 43.8C41.4001 43.8 34.5001 36.9 34.5001 28.5C34.5001 26 35.1001 23.7 36.1001 21.6C40.0001 11.1 49.8001 4.82535e-05 49.8001 4.82535e-05ZM1.6001 21.6C0.600099 23.7 0.000100738 26 0.00010052 28.5C9.97853e-05 36.9 6.9001 43.8 15.3001 43.8C23.7001 43.8 30.7001 36.9 30.7001 28.5C30.7001 20.1 23.8001 13.2 15.4001 13.2L15.4001 0.100044C15.3001 4.52374e-05 5.6001 11.1 1.6001 21.6Z" fill="#DA4F81"/>
</svg>
