<svg width="190" height="114" viewBox="0 0 190 114" fill="none" xmlns="http://www.w3.org/2000/svg">
<g clip-path="url(#clip0_128_288)">
<path d="M77.3378 113.765C76.0469 113.765 74.8146 113.472 73.6997 112.885C72.6435 112.298 71.7633 111.477 71.2352 110.421C70.6485 109.248 70.2964 107.957 70.2964 106.607C70.2964 105.258 70.5898 103.967 71.2352 102.794C71.822 101.738 72.7022 100.916 73.6997 100.329C74.8146 99.7427 76.0469 99.3906 77.3378 99.4493C78.3353 99.4493 79.3328 99.6253 80.213 99.9773C81.0932 100.329 81.856 100.857 82.4428 101.503C82.5601 101.561 82.6188 101.679 82.6775 101.796C82.7362 101.914 82.7362 102.031 82.6775 102.148C82.6188 102.383 82.4428 102.559 82.2081 102.676H82.1494C81.9733 102.794 81.7386 102.794 81.5039 102.794C81.2105 102.794 80.9758 102.676 80.7411 102.5C80.2717 102.031 79.7436 101.738 79.1568 101.503C78.57 101.268 77.9245 101.151 77.2791 101.209C76.3402 101.209 75.4601 101.444 74.6973 101.855C73.9344 102.324 73.3477 102.97 72.9369 103.732C72.5262 104.612 72.2914 105.61 72.2914 106.607C72.2914 107.605 72.5262 108.602 72.9369 109.482C73.3477 110.245 73.9344 110.89 74.6973 111.36C75.4601 111.829 76.3989 112.064 77.2791 112.064C77.9245 112.064 78.5113 112.005 79.0981 111.77C79.6849 111.536 80.213 111.184 80.6824 110.773C80.8585 110.597 81.1518 110.48 81.3866 110.421C81.6213 110.421 81.856 110.421 82.0907 110.538C82.2081 110.597 82.3254 110.656 82.3841 110.773C82.4428 110.89 82.5601 110.949 82.5601 111.066C82.6188 111.184 82.6188 111.301 82.5601 111.418C82.5014 111.536 82.4428 111.653 82.3841 111.712C81.7386 112.357 80.9758 112.885 80.1543 113.237C79.3328 113.531 78.3353 113.765 77.3378 113.765Z" fill="white"/>
<path d="M93.5917 112.533C93.4157 112.533 93.2396 112.475 93.0636 112.416C92.9462 112.416 92.8876 112.357 92.8289 112.24C92.8289 112.122 92.8289 111.946 92.8289 111.829V107.077C92.8876 106.607 92.8289 106.138 92.6528 105.669C92.4768 105.199 92.2421 104.788 91.89 104.436C91.0685 103.908 90.1297 103.674 89.1322 103.732C88.5454 103.732 87.9586 103.791 87.3718 103.967C86.785 104.084 86.2569 104.319 85.7288 104.554C85.6115 104.612 85.4941 104.671 85.4354 104.73C85.3181 104.788 85.2594 104.906 85.2007 105.023C85.142 105.141 85.142 105.258 85.142 105.375C85.142 105.493 85.2007 105.61 85.2594 105.669C85.3181 105.786 85.3768 105.845 85.4941 105.903C85.5528 105.962 85.6701 106.021 85.7875 106.021C86.0222 106.079 86.2569 106.021 86.4916 105.903C86.9024 105.727 87.3131 105.551 87.7239 105.493C88.1346 105.375 88.5454 105.317 88.9561 105.317C89.4842 105.258 89.9537 105.375 90.3644 105.669C90.5404 105.845 90.7165 106.079 90.7751 106.314C90.8338 106.549 90.8925 106.842 90.8338 107.077V108.309C90.5404 108.133 90.247 107.957 89.9537 107.898C89.6016 107.781 89.1908 107.781 88.8388 107.781C88.1346 107.781 87.4305 107.898 86.785 108.191C86.1396 108.426 85.6115 108.837 85.142 109.306C84.7313 109.776 84.4966 110.362 84.4966 111.008C84.4966 111.418 84.5553 111.77 84.7313 112.122C84.9073 112.475 85.142 112.768 85.4354 113.003C86.1396 113.472 86.9611 113.707 87.8412 113.648C88.428 113.589 89.0148 113.472 89.5429 113.296C90.071 113.12 90.4818 112.885 90.8925 112.533C90.9512 112.827 91.0685 113.179 91.3033 113.413C91.5966 113.589 91.89 113.707 92.2421 113.648C92.5355 113.648 92.7702 113.589 93.0636 113.531C93.2396 113.531 93.4157 113.413 93.5917 113.296C93.7091 113.12 93.7677 112.944 93.7677 112.768C93.8851 112.592 93.7677 112.533 93.5917 112.533ZM90.7165 111.125C90.4231 111.418 90.071 111.653 89.6603 111.77C89.1908 111.946 88.6627 112.005 88.1346 112.005C87.7239 112.064 87.2545 111.946 86.9024 111.712C86.785 111.594 86.6677 111.477 86.5503 111.36C86.4916 111.242 86.433 111.066 86.433 110.89C86.433 110.714 86.4916 110.538 86.5503 110.421C86.609 110.245 86.7264 110.128 86.8437 110.01C87.1371 109.717 87.4305 109.482 87.8412 109.365C88.252 109.189 88.7214 109.13 89.1908 109.072C89.6603 109.013 90.1297 109.13 90.5404 109.248C90.7165 109.306 90.8338 109.424 90.9512 109.541C91.0685 109.658 91.1272 109.834 91.1272 110.01C91.1272 110.186 91.1272 110.362 91.0685 110.538C90.9512 110.773 90.8338 110.949 90.7165 111.125Z" fill="white"/>
<path d="M96.7603 113.472C96.1735 113.472 95.8801 113.179 95.8801 112.533V104.964C95.8801 104.847 95.8801 104.73 95.9388 104.612C95.9975 104.495 96.0562 104.378 96.1148 104.319C96.2322 104.202 96.2909 104.143 96.4669 104.143C96.5843 104.084 96.7016 104.084 96.819 104.084C96.995 104.084 97.2297 104.143 97.4058 104.26C97.5231 104.319 97.5818 104.436 97.5818 104.554C97.6405 104.671 97.6405 104.788 97.6405 104.906V105.61C97.9339 105.082 98.3446 104.671 98.8727 104.378C99.4008 104.084 99.9876 103.908 100.633 103.908C101.455 103.908 101.865 104.202 101.865 104.847C101.865 104.964 101.865 105.082 101.807 105.199C101.748 105.317 101.689 105.375 101.631 105.493C101.513 105.61 101.279 105.669 101.102 105.669H100.75H100.398C99.6942 105.61 98.9901 105.845 98.462 106.314C98.2273 106.549 97.9925 106.842 97.8752 107.194C97.7578 107.546 97.6992 107.898 97.6992 108.25V112.709C97.6992 113.12 97.4058 113.472 96.7603 113.472Z" fill="white"/>
<path d="M110.96 110.597C110.902 110.538 110.784 110.48 110.667 110.48C110.55 110.48 110.432 110.48 110.374 110.48C110.139 110.597 109.963 110.714 109.787 110.949C109.552 111.36 109.2 111.653 108.848 111.888C108.437 112.122 107.968 112.181 107.557 112.181C107.205 112.181 106.794 112.122 106.442 112.005C106.09 111.888 105.797 111.653 105.503 111.36C104.975 110.656 104.741 109.834 104.799 108.954H110.726C110.96 108.954 111.195 108.896 111.43 108.778C111.547 108.661 111.606 108.543 111.606 108.426C111.665 108.309 111.665 108.133 111.665 108.015C111.665 107.311 111.489 106.666 111.195 106.021C110.843 105.375 110.374 104.847 109.787 104.436C109.141 104.026 108.32 103.791 107.557 103.791C106.736 103.791 105.914 103.967 105.21 104.378C104.506 104.788 103.919 105.375 103.567 106.079C103.156 106.901 102.98 107.781 102.98 108.72C102.98 109.658 103.156 110.597 103.567 111.418C103.919 112.122 104.506 112.709 105.21 113.12C105.914 113.531 106.736 113.707 107.616 113.707C108.32 113.707 109.024 113.589 109.67 113.237C110.315 112.944 110.843 112.475 111.254 111.888C111.371 111.77 111.43 111.653 111.489 111.536C111.547 111.418 111.547 111.301 111.547 111.125C111.547 111.008 111.489 110.89 111.43 110.773C111.136 110.714 111.078 110.597 110.96 110.597ZM105.621 105.786C106.09 105.375 106.736 105.199 107.322 105.199C107.616 105.199 107.909 105.258 108.203 105.375C108.496 105.493 108.731 105.669 108.965 105.845C109.376 106.314 109.67 106.901 109.787 107.487H104.741C104.858 106.842 105.151 106.197 105.621 105.786Z" fill="white"/>
<path d="M123.283 113.765C122.051 113.765 120.819 113.472 119.704 112.885C118.647 112.298 117.767 111.477 117.239 110.421C116.652 109.248 116.3 107.957 116.3 106.607C116.3 105.258 116.594 103.967 117.239 102.794C117.826 101.738 118.706 100.916 119.704 100.329C120.819 99.7427 122.109 99.3906 123.342 99.4493C124.339 99.4493 125.337 99.6253 126.217 99.9773C127.097 100.329 127.86 100.857 128.447 101.503C128.564 101.561 128.623 101.679 128.681 101.796C128.74 101.914 128.74 102.031 128.681 102.148C128.623 102.383 128.447 102.559 128.212 102.676H128.153C127.977 102.794 127.743 102.794 127.508 102.794C127.214 102.794 126.98 102.676 126.745 102.5C126.276 102.031 125.747 101.738 125.161 101.503C124.574 101.268 123.928 101.151 123.283 101.209C122.344 101.209 121.464 101.444 120.701 101.855C119.938 102.266 119.293 102.911 118.882 103.732C118.471 104.612 118.237 105.61 118.237 106.607C118.237 107.605 118.471 108.602 118.882 109.482C119.293 110.245 119.88 110.89 120.642 111.36C121.405 111.829 122.344 112.064 123.224 112.064C123.87 112.064 124.457 112.005 125.043 111.77C125.63 111.536 126.158 111.184 126.628 110.773C126.804 110.597 127.097 110.48 127.332 110.421C127.567 110.362 127.801 110.421 127.977 110.538C128.095 110.597 128.212 110.656 128.271 110.773C128.329 110.89 128.447 110.949 128.447 111.066C128.505 111.184 128.505 111.301 128.447 111.418C128.388 111.536 128.329 111.653 128.212 111.712C127.567 112.357 126.804 112.885 125.982 113.237C125.219 113.589 124.281 113.765 123.283 113.765Z" fill="white"/>
<path d="M131.908 113.472C131.322 113.472 131.028 113.179 131.028 112.533V100.271C131.028 99.6253 131.322 99.332 131.908 99.332C132.495 99.332 132.789 99.6253 132.789 100.271V112.533C132.789 113.12 132.495 113.472 131.908 113.472Z" fill="white"/>
<path d="M136.661 102.207C136.485 102.207 136.368 102.207 136.192 102.148C136.075 102.09 135.899 101.972 135.781 101.914C135.547 101.679 135.429 101.385 135.429 101.092C135.429 100.799 135.547 100.505 135.781 100.271C135.899 100.153 136.016 100.095 136.192 100.036C136.309 99.9773 136.485 99.9187 136.661 99.9773C136.955 99.9773 137.248 100.153 137.483 100.388C137.718 100.623 137.835 100.916 137.835 101.209C137.835 101.385 137.835 101.503 137.776 101.679C137.718 101.796 137.6 101.972 137.542 102.031C137.424 102.148 137.307 102.207 137.19 102.266C136.955 102.207 136.779 102.207 136.661 102.207Z" fill="white"/>
<path d="M136.661 113.472C136.075 113.472 135.781 113.179 135.781 112.533V104.964C135.781 104.319 136.075 104.026 136.661 104.026C137.248 104.026 137.542 104.319 137.542 104.964V112.533C137.542 113.12 137.248 113.472 136.661 113.472Z" fill="white"/>
<path d="M152.27 102.207C152.035 102.148 151.8 101.972 151.624 101.738C151.448 101.503 151.39 101.268 151.39 101.033C151.39 100.799 151.448 100.505 151.624 100.329C151.8 100.095 151.976 99.9774 152.27 99.86C152.446 99.86 152.563 99.86 152.739 99.9187C152.857 99.9774 153.033 100.095 153.15 100.153C153.385 100.388 153.502 100.681 153.502 100.975C153.502 101.268 153.385 101.562 153.15 101.796C153.033 101.914 152.915 101.972 152.739 102.031C152.563 102.207 152.387 102.207 152.27 102.207Z" fill="white"/>
<path d="M152.27 113.472C151.683 113.472 151.39 113.179 151.39 112.533V104.964C151.39 104.319 151.683 104.026 152.27 104.026C152.857 104.026 153.15 104.319 153.15 104.964V112.533C153.15 113.12 152.857 113.472 152.27 113.472Z" fill="white"/>
<path d="M154.676 53.157C153.737 53.2156 152.798 52.981 151.918 52.5703C151.038 52.1595 150.334 51.5142 149.805 50.7514C149.629 50.5754 149.512 50.3407 149.453 50.0474C149.395 49.8127 149.395 49.5193 149.512 49.2846C149.629 49.0499 149.747 48.8739 149.923 48.7566C150.099 48.5805 150.275 48.5219 150.51 48.4045C150.744 48.2872 150.92 48.2872 151.155 48.2872C151.39 48.2872 151.624 48.3459 151.8 48.4045C152.211 48.6392 152.563 48.9326 152.915 49.2846C153.15 49.4606 153.385 49.578 153.619 49.6953C153.913 49.8127 154.206 49.8713 154.558 49.8713C155.321 49.93 156.084 49.6953 156.671 49.2259C156.964 48.9326 157.199 48.5805 157.316 48.2285C157.434 47.8178 157.492 47.4071 157.434 47.0551C157.492 46.2337 157.199 45.4709 156.671 44.8255C156.377 44.5322 156.025 44.2975 155.615 44.1801C155.204 44.0628 154.793 44.0041 154.382 44.0041C154.148 44.0041 153.972 44.0041 153.737 43.9454C153.502 43.8868 153.326 43.7694 153.209 43.5934C153.033 43.4761 152.915 43.2414 152.857 43.0654C152.739 42.8893 152.739 42.6547 152.739 42.42C152.739 42.1853 152.798 42.0093 152.857 41.7746C152.915 41.5986 153.091 41.4225 153.209 41.2465C153.385 41.1292 153.561 41.0118 153.737 40.8945C153.972 40.8358 154.148 40.7771 154.382 40.8358C154.734 40.8945 155.086 40.8358 155.439 40.6598C155.791 40.5425 156.084 40.3078 156.319 40.0144C156.729 39.4864 156.905 38.7823 156.905 38.1369C156.964 37.7849 156.905 37.4328 156.788 37.1395C156.671 36.8461 156.436 36.5528 156.201 36.3181C155.732 35.966 155.145 35.79 154.558 35.8487C154.265 35.8487 154.03 35.9074 153.796 36.0247C153.561 36.1421 153.326 36.2594 153.15 36.4354C152.857 36.7874 152.446 37.0808 152.035 37.3155C151.859 37.3742 151.624 37.4328 151.39 37.4328C151.155 37.4328 150.979 37.3742 150.744 37.2568C150.51 37.1981 150.334 37.0808 150.157 36.9048C149.981 36.7288 149.864 36.5528 149.805 36.3181C149.747 36.0834 149.747 35.79 149.805 35.5553C149.864 35.3206 149.981 35.086 150.157 34.9099C150.686 34.2059 151.331 33.6191 152.094 33.2084C152.857 32.7977 153.737 32.6217 154.617 32.6217C155.673 32.6217 156.729 32.8564 157.727 33.3258C158.607 33.7365 159.311 34.3819 159.781 35.2033C160.309 36.0834 160.544 37.0221 160.544 38.0196C160.544 38.9583 160.309 39.8384 159.781 40.6011C159.311 41.3639 158.607 41.9506 157.844 42.3026C158.783 42.6547 159.605 43.3001 160.133 44.1215C160.72 45.0015 161.013 46.0576 161.013 47.1137C161.072 47.9352 160.954 48.6979 160.661 49.4606C160.367 50.2234 159.898 50.8688 159.311 51.4555C158.666 52.0422 157.903 52.4529 157.14 52.7463C156.377 53.0983 155.497 53.2156 154.676 53.157Z" fill="white"/>
<path d="M169.463 53.157C168.172 53.2156 166.881 52.8049 165.825 51.9835C164.886 51.0448 164.24 49.8713 164.006 48.5805C163.595 46.7617 163.419 44.8255 163.478 42.948C163.419 41.0705 163.595 39.1343 164.006 37.3155C164.24 36.0247 164.886 34.7926 165.825 33.9125C166.881 33.0911 168.172 32.6804 169.463 32.7391C170.812 32.6804 172.103 33.0911 173.101 33.9125C174.04 34.8513 174.685 36.0247 174.92 37.3155C175.331 39.193 175.507 41.0705 175.448 42.948C175.507 44.8255 175.331 46.703 174.92 48.5805C174.685 49.8713 174.04 51.1034 173.101 51.9835C172.103 52.8049 170.812 53.2156 169.463 53.157ZM169.463 49.8713C169.756 49.8713 170.05 49.8713 170.284 49.754C170.578 49.6366 170.812 49.4606 170.988 49.2846C171.458 48.6392 171.751 47.9352 171.81 47.1724C171.986 45.7643 172.045 44.3562 172.045 42.948C172.045 41.5399 171.986 40.0731 171.81 38.665C171.751 37.9022 171.458 37.1395 170.988 36.4941C170.812 36.2594 170.578 36.1421 170.284 36.0247C169.991 35.9074 169.756 35.8487 169.463 35.9074C169.169 35.9074 168.876 35.966 168.641 36.0247C168.348 36.1421 168.113 36.2594 167.937 36.4941C167.468 37.1395 167.174 37.8435 167.116 38.665C166.94 40.0731 166.822 41.4812 166.881 42.948C166.881 44.3562 166.94 45.7643 167.116 47.1724C167.174 47.9352 167.468 48.6979 167.937 49.2846C168.113 49.4606 168.407 49.6366 168.641 49.754C168.876 49.8713 169.169 49.93 169.463 49.8713Z" fill="white"/>
<path d="M183.898 53.157C182.783 53.157 181.668 52.9223 180.729 52.3942C179.849 51.8662 179.086 51.1034 178.558 50.2234C178.03 49.2259 177.736 48.1112 177.795 46.9964C177.795 46.0576 178.03 45.1189 178.558 44.3561C179.027 43.5934 179.614 42.948 180.377 42.4786C179.79 42.0093 179.262 41.4812 178.91 40.8358C178.499 40.1318 178.264 39.3103 178.323 38.4303C178.323 37.3742 178.558 36.3767 179.027 35.438C179.497 34.6166 180.142 33.9125 181.022 33.4431C181.902 32.9737 182.9 32.7391 183.956 32.7391C184.954 32.7391 185.951 32.9737 186.89 33.4431C187.712 33.9125 188.416 34.6166 188.885 35.438C189.355 36.3767 189.589 37.3742 189.589 38.4303C189.589 39.2517 189.413 40.0731 189.003 40.8358C188.592 41.4812 188.122 42.0093 187.536 42.4786C188.298 42.948 188.944 43.5934 189.355 44.3561C189.883 45.1776 190.117 46.0576 190.117 46.9964C190.117 48.1112 189.883 49.2846 189.296 50.282C188.768 51.2208 188.005 51.9835 187.066 52.4529C186.069 52.8636 185.012 53.157 183.898 53.157ZM183.898 49.8713C184.25 49.8713 184.66 49.8713 184.954 49.6953C185.306 49.578 185.599 49.3433 185.893 49.1086C186.362 48.4632 186.597 47.6418 186.538 46.8204C186.597 45.999 186.362 45.2362 185.893 44.5908C185.658 44.3561 185.306 44.1215 184.954 44.0041C184.602 43.8868 184.25 43.7694 183.898 43.7694C183.545 43.7694 183.135 43.8281 182.841 44.0041C182.489 44.1215 182.196 44.3561 181.902 44.5908C181.433 45.2362 181.198 45.999 181.257 46.8204C181.198 47.6418 181.433 48.4632 181.902 49.1086C182.137 49.3433 182.489 49.578 182.841 49.6953C183.193 49.8713 183.545 49.93 183.898 49.8713ZM183.898 41.1292C185.364 41.1292 186.069 40.2491 186.069 38.4303C186.127 38.0782 186.069 37.7262 185.951 37.4328C185.834 37.0808 185.658 36.7874 185.423 36.5527C185.247 36.3767 184.954 36.2007 184.719 36.0834C184.426 35.966 184.191 35.9074 183.898 35.966C183.604 35.966 183.311 36.0247 183.076 36.142C182.783 36.2594 182.548 36.3767 182.372 36.6114C182.137 36.8461 181.961 37.1981 181.844 37.4915C181.726 37.8435 181.668 38.1369 181.726 38.4889C181.726 40.2491 182.431 41.1292 183.898 41.1292Z" fill="white"/>
<path d="M0 42.4786C0 30.4508 4.0488 20.4179 12.1464 12.2625C20.3613 4.10705 30.7474 0 43.2458 0C55.7443 0 66.1303 3.93103 74.2866 11.7931C82.5602 19.7138 86.6677 29.9815 86.6677 42.4786C86.6677 54.7998 82.5602 64.9501 74.2866 72.9295C66.0716 80.9089 55.6856 84.8986 43.2458 84.9573C30.7474 84.9573 20.42 81.0262 12.2637 73.1642C4.10747 65.3608 0 55.0932 0 42.4786ZM15.4324 42.4786C15.4324 50.8101 18.0729 57.6747 23.4126 63.1899C25.9358 65.8888 29.0457 68.001 32.449 69.4092C35.8524 70.8173 39.5491 71.5214 43.2458 71.404C51.8128 71.404 58.6195 68.6464 63.6072 63.1899C68.5948 57.7334 71.118 50.8101 71.2353 42.4786C71.2353 34.0885 68.5361 27.1652 63.1377 21.65C60.5559 19.0098 57.5046 16.9563 54.0426 15.5481C50.6393 14.1987 46.9426 13.4946 43.2458 13.5533C39.5491 13.4359 35.8524 14.14 32.3904 15.5481C28.9284 16.9563 25.8771 19.0685 23.2952 21.7087C18.0729 27.0479 15.4324 34.0299 15.4324 42.4786Z" fill="white"/>
<path d="M170.225 64.8327L175.8 75.6284C172.631 78.738 168.817 81.0262 164.592 82.317C159.663 84.0185 154.441 84.8986 149.219 84.8986C136.544 84.8986 126.217 81.0262 118.178 73.2815C110.198 65.5368 106.207 55.2105 106.325 42.42C106.325 30.1575 110.08 20.0072 117.65 11.9691C125.102 3.87236 135.547 -0.117347 148.808 -3.17907e-06C159.429 -3.17907e-06 167.878 2.75759 174.098 8.33144L167.585 19.0098C162.01 15.3721 155.497 13.4359 148.808 13.5533C145.17 13.4359 141.59 14.0813 138.187 15.4308C134.842 16.7802 131.791 18.8338 129.268 21.4153C124.163 26.6372 121.64 33.6778 121.64 42.4786C121.64 51.1034 124.28 58.0854 129.62 63.4833C134.96 68.8224 141.884 71.5214 150.392 71.4627C157.61 71.5214 164.592 69.1745 170.225 64.8327Z" fill="white"/>
<path d="M112.662 73.2815C110.902 71.5214 109.317 69.6438 107.909 67.5903C103.215 70.1132 97.9339 71.404 92.5942 71.3453C84.1445 71.3453 77.1618 68.7051 71.8221 63.3659C66.4237 58.0268 63.7832 51.0448 63.8419 42.3613C63.8419 33.5605 66.365 26.5785 71.47 21.298C73.9932 18.7164 77.0445 16.6629 80.3891 15.3721C83.7338 14.0226 87.3718 13.3772 90.9512 13.5533C96.7603 13.4946 102.511 14.9614 107.616 17.7777C108.965 15.7241 110.432 13.788 112.134 12.0278C113.366 10.6783 114.775 9.44621 116.183 8.33144C109.963 2.81626 101.513 0.05867 90.9512 0.05867C77.5726 0.05867 67.1865 4.04838 59.7344 12.0865C52.2236 20.0072 48.4095 30.1575 48.3508 42.4786C48.3508 55.2692 52.2823 65.5368 60.2038 73.3402C68.1254 81.1436 78.4527 85.0159 91.2446 84.9573C96.467 84.9573 101.689 84.1359 106.618 82.3757C110.315 81.1436 113.718 79.2661 116.711 76.7432C115.303 75.6871 113.953 74.5136 112.662 73.2815Z" fill="white"/>
<path d="M70.7072 48.5219C69.827 53.9784 67.3626 59.0829 63.6072 63.1899C58.6195 68.7051 51.8715 71.404 43.3045 71.404C39.6078 71.5214 35.911 70.8173 32.5077 69.4092C29.1044 68.001 25.9944 65.8888 23.4713 63.1899C19.5398 59.2002 16.958 54.0957 16.0191 48.5219H0.352051C1.23222 57.9094 5.39838 66.6516 12.2637 73.2228C20.42 81.0849 30.7474 85.0159 43.2458 85.0159C55.7443 85.0159 66.1303 81.0262 74.2866 72.9882C81.0346 66.4755 85.3181 57.8507 86.2569 48.5805L70.7072 48.5219Z" fill="white"/>
<path d="M36.5566 113.472C35.9112 113.472 35.5591 113.179 35.5591 112.533V104.964C35.5591 104.319 35.8525 104.026 36.4393 104.026C37.0847 104.026 37.3781 104.202 37.3781 104.495V105.258C37.7302 104.847 38.1409 104.495 38.6104 104.26C39.1385 103.967 39.7839 103.85 40.4294 103.85C41.4269 103.791 42.4244 104.143 43.1872 104.788C43.5393 105.141 43.8327 105.61 44.0087 106.079C44.1848 106.549 44.2435 107.077 44.2435 107.605V112.651C44.2435 113.296 43.8914 113.589 43.2459 113.589C43.1286 113.589 43.0112 113.589 42.8352 113.531C42.7178 113.472 42.6005 113.413 42.4831 113.355C42.3658 113.237 42.3071 113.179 42.2484 113.003C42.1897 112.885 42.1897 112.768 42.1897 112.592V107.898C42.2484 107.194 42.0137 106.549 41.5443 106.021C41.3095 105.786 41.0748 105.669 40.7814 105.551C40.4881 105.434 40.1947 105.375 39.9013 105.434C39.1971 105.434 38.5517 105.669 38.0822 106.079C37.8475 106.314 37.6715 106.607 37.5541 106.901C37.4368 107.194 37.3781 107.546 37.3781 107.839V112.533C37.5541 113.12 37.2021 113.472 36.5566 113.472Z" fill="white"/>
<path d="M51.1088 113.648C50.2286 113.648 49.3485 113.472 48.6443 113.003C47.9402 112.592 47.2947 112.005 46.884 111.242C46.4732 110.421 46.2385 109.541 46.2385 108.661C46.2385 107.781 46.4146 106.842 46.884 106.079C47.2947 105.375 47.8815 104.73 48.6443 104.319C49.4071 103.908 50.2873 103.674 51.1088 103.674C52.2237 103.674 53.2799 104.026 54.1601 104.671C54.2774 104.73 54.3948 104.847 54.4535 104.906C54.5122 105.023 54.5708 105.141 54.5708 105.258C54.5708 105.375 54.5122 105.493 54.4535 105.61C54.3948 105.727 54.2774 105.786 54.1601 105.845C53.984 105.962 53.808 106.021 53.5733 106.021C53.3386 105.962 53.1039 105.845 52.8692 105.727C52.2824 105.317 51.5782 105.141 50.8741 105.199C50.17 105.258 49.5245 105.551 48.9964 106.079C48.4683 106.783 48.1749 107.663 48.1749 108.543C48.1749 109.424 48.4683 110.304 48.9964 111.008C49.4658 111.477 50.1113 111.77 50.8154 111.829C51.5196 111.888 52.165 111.712 52.7518 111.36C52.9865 111.242 53.2212 111.125 53.4559 111.066C53.6907 111.066 53.9254 111.125 54.1014 111.242C54.2188 111.301 54.2774 111.418 54.3361 111.477C54.3948 111.594 54.4535 111.712 54.4535 111.829C54.4535 111.946 54.4535 112.064 54.3948 112.181C54.3361 112.299 54.2188 112.357 54.1601 112.475C53.3386 113.296 52.2237 113.707 51.1088 113.648Z" fill="white"/>
<path d="M25.9943 114C24.4687 114 23.0018 113.589 21.7108 112.709C20.4199 111.888 19.4224 110.656 18.8356 109.306C18.2488 107.898 18.0728 106.373 18.3662 104.906C18.6596 103.439 19.3637 102.09 20.4786 100.975C21.5348 99.9187 22.9431 99.1559 24.41 98.8626C25.877 98.5692 27.4613 98.6866 28.8696 99.2733C30.2779 99.86 31.5101 100.799 32.3316 102.09C33.1531 103.322 33.6225 104.847 33.6225 106.314C33.6225 108.309 32.801 110.245 31.3927 111.712C29.9845 113.179 28.0481 114 25.9943 114ZM25.9943 100.623C24.8208 100.623 23.7059 100.975 22.767 101.62C21.8282 102.266 21.0654 103.146 20.596 104.202C20.1265 105.258 20.0678 106.431 20.2439 107.546C20.4786 108.661 21.0067 109.717 21.8282 110.48C22.6497 111.301 23.7059 111.829 24.8208 112.064C25.9357 112.299 27.1092 112.181 28.1654 111.712C29.2216 111.301 30.1605 110.538 30.806 109.6C31.4514 108.661 31.8035 107.546 31.8035 106.373C31.8035 105.61 31.6275 104.847 31.3341 104.143C31.0407 103.439 30.6299 102.794 30.0431 102.266C29.515 101.738 28.8696 101.327 28.1654 101.033C27.52 100.74 26.7572 100.623 25.9943 100.623Z" fill="white"/>
<path d="M61.0253 113.941C59.969 113.941 58.9715 113.648 58.0913 113.061C57.2112 112.475 56.5657 111.653 56.155 110.714C55.7442 109.776 55.6269 108.72 55.8616 107.722C56.0376 106.725 56.5657 105.786 57.2698 105.082C58.0327 104.378 58.9128 103.85 59.969 103.674C60.9666 103.498 62.0228 103.556 63.0203 103.967C63.9592 104.378 64.7807 105.023 65.3674 105.903C65.9542 106.783 66.2476 107.781 66.2476 108.778C66.2476 110.128 65.7195 111.477 64.722 112.416C63.7245 113.413 62.3749 113.941 61.0253 113.941ZM61.0253 105.317C60.3211 105.317 59.6757 105.493 59.0889 105.903C58.5021 106.255 58.0327 106.842 57.798 107.429C57.5046 108.074 57.4459 108.778 57.6219 109.424C57.7393 110.069 58.0913 110.714 58.5608 111.184C59.0302 111.653 59.6757 112.005 60.3798 112.122C61.0839 112.24 61.7881 112.181 62.4335 111.946C63.079 111.712 63.6071 111.242 64.0178 110.656C64.4286 110.069 64.6046 109.424 64.6046 108.72C64.6046 108.25 64.5459 107.839 64.3699 107.37C64.1939 106.959 63.9592 106.549 63.6071 106.255C63.255 105.903 62.903 105.669 62.4922 105.493C61.9054 105.375 61.4947 105.317 61.0253 105.317Z" fill="white"/>
<path d="M141.062 113.648C140.417 113.648 140.065 113.355 140.065 112.709V105.14C140.065 104.495 140.358 104.202 140.945 104.202C141.591 104.202 141.884 104.378 141.884 104.671V105.434C142.236 105.023 142.647 104.671 143.116 104.436C143.644 104.143 144.29 104.026 144.935 104.026C145.933 103.967 146.93 104.319 147.693 104.964C148.045 105.317 148.339 105.786 148.515 106.255C148.691 106.725 148.749 107.253 148.749 107.781V112.827C148.749 113.472 148.397 113.765 147.752 113.765C147.634 113.765 147.517 113.765 147.341 113.707C147.224 113.648 147.106 113.589 146.989 113.531C146.872 113.413 146.813 113.355 146.754 113.179C146.696 113.061 146.696 112.944 146.696 112.768V108.133C146.754 107.429 146.52 106.783 146.05 106.255C145.815 106.021 145.581 105.903 145.287 105.786C144.994 105.669 144.701 105.61 144.407 105.669C143.703 105.669 143.058 105.903 142.588 106.314C142.353 106.549 142.177 106.842 142.06 107.135C141.943 107.429 141.884 107.781 141.884 108.074V112.768C142.119 113.296 141.767 113.648 141.062 113.648Z" fill="white"/>
<path d="M160.192 113.765C159.311 113.765 158.431 113.589 157.727 113.12C157.023 112.709 156.377 112.122 155.967 111.36C155.556 110.538 155.321 109.658 155.321 108.778C155.321 107.898 155.556 107.018 155.967 106.197C156.377 105.493 156.964 104.847 157.727 104.436C158.49 104.026 159.37 103.791 160.192 103.791C161.306 103.791 162.363 104.143 163.243 104.788C163.36 104.847 163.478 104.964 163.536 105.023C163.595 105.141 163.654 105.258 163.654 105.375C163.654 105.493 163.595 105.61 163.536 105.727C163.478 105.845 163.36 105.903 163.243 105.962C163.067 106.138 162.832 106.197 162.597 106.197C162.363 106.138 162.128 106.021 161.893 105.903C161.424 105.551 160.778 105.317 160.192 105.375C159.781 105.375 159.37 105.434 159.018 105.61C158.666 105.786 158.314 106.021 158.079 106.255C157.551 106.959 157.258 107.839 157.258 108.72C157.258 109.6 157.551 110.48 158.079 111.184C158.373 111.477 158.666 111.712 159.018 111.829C159.37 112.005 159.781 112.064 160.192 112.064C160.778 112.064 161.365 111.888 161.893 111.536C162.128 111.36 162.304 111.301 162.597 111.242C162.832 111.242 163.067 111.301 163.243 111.418C163.419 111.536 163.595 111.77 163.654 112.005C163.654 112.122 163.654 112.24 163.595 112.357C163.536 112.475 163.419 112.533 163.302 112.651C162.363 113.413 161.306 113.765 160.192 113.765Z" fill="white"/>
</g>
<defs>
<clipPath id="clip0_128_288">
<rect width="190" height="114" fill="white"/>
</clipPath>
</defs>
</svg>
