<svg width="219" height="56" viewBox="0 0 219 56" fill="none" xmlns="http://www.w3.org/2000/svg">
<path d="M1.92312 2.61265H47.5285C48.5906 2.61265 49.4516 3.49627 49.4516 4.58627V13.79C49.4516 15.016 48.9332 16.1767 48.0308 16.98L22.528 38.875H47.5285C48.5906 38.875 49.4516 39.7425 49.4516 40.8325V51.3986C49.4516 52.4886 48.5906 53.3723 47.5285 53.3723H1.92312C0.861009 53.3723 0 52.4886 0 51.3986V42.21C0 40.984 0.518376 39.8233 1.42081 39.02L26.9237 17.125H1.92312C0.861009 17.125 0 16.2212 0 15.1312V4.58627C0 3.49627 0.861009 2.61265 1.92312 2.61265ZM81.2419 0.8125C86.5151 0.8125 91.2164 2.02945 95.1411 4.25334C99.0659 6.47724 102.214 9.70808 104.381 13.7359C106.548 17.7636 107.734 22.5884 107.734 28C107.734 33.4117 106.548 38.2364 104.381 42.2641C102.214 46.2919 99.0659 49.5228 95.1411 51.7467C91.2164 53.9706 86.5151 55.1875 81.2419 55.1875C75.9687 55.1875 71.2675 53.9706 67.3427 51.7467C63.418 49.5228 60.2698 46.2919 58.1028 42.2641C55.9358 38.2364 54.75 33.4117 54.75 28C54.75 22.5884 55.9358 17.7636 58.1028 13.7359C60.2698 9.70808 63.418 6.47724 67.3427 4.25334C71.2675 2.02945 75.9687 0.8125 81.2419 0.8125ZM81.2419 15.3125C78.7195 15.3125 76.505 15.8593 74.6735 16.8761C72.8419 17.8928 71.3933 19.3794 70.4026 21.2591C69.4119 23.1387 68.879 25.4113 68.879 28C68.879 30.5887 69.4119 32.8613 70.4026 34.7409C71.3933 36.6206 72.8419 38.1072 74.6735 39.1239C76.505 40.1407 78.7195 40.6875 81.2419 40.6875C83.7644 40.6875 85.9789 40.1407 87.8104 39.1239C89.6419 38.1072 91.0906 36.6206 92.0813 34.7409C93.072 32.8613 93.6048 30.5887 93.6048 28C93.6048 25.4113 93.072 23.1387 92.0813 21.2591C91.0906 19.3794 89.6419 17.8928 87.8104 16.8761C85.9789 15.8593 83.7644 15.3125 81.2419 15.3125ZM137.758 0.8125C143.031 0.8125 147.733 2.02945 151.657 4.25334C155.582 6.47724 158.73 9.70808 160.897 13.7359C163.064 17.7636 164.25 22.5884 164.25 28C164.25 33.4117 163.064 38.2364 160.897 42.2641C158.73 46.2919 155.582 49.5228 151.657 51.7467C147.733 53.9706 143.031 55.1875 137.758 55.1875C132.485 55.1875 127.784 53.9706 123.859 51.7467C119.934 49.5228 116.786 46.2919 114.619 42.2641C112.452 38.2364 111.266 33.4117 111.266 28C111.266 22.5884 112.452 17.7636 114.619 13.7359C116.786 9.70808 119.934 6.47724 123.859 4.25334C127.784 2.02945 132.485 0.8125 137.758 0.8125ZM137.758 15.3125C135.236 15.3125 133.021 15.8593 131.19 16.8761C129.358 17.8928 127.909 19.3794 126.919 21.2591C125.928 23.1387 125.395 25.4113 125.395 28C125.395 30.5887 125.928 32.8613 126.919 34.7409C127.909 36.6206 129.358 38.1072 131.19 39.1239C133.021 40.1407 135.236 40.6875 137.758 40.6875C140.281 40.6875 142.495 40.1407 144.327 39.1239C146.158 38.1072 147.607 36.6206 148.597 34.7409C149.588 32.8613 150.121 30.5887 150.121 28C150.121 25.4113 149.588 23.1387 148.597 21.2591C147.607 19.3794 146.158 17.8928 144.327 16.8761C142.495 15.8593 140.281 15.3125 137.758 15.3125ZM219.006 4.59254V51.3979C219.006 52.4879 218.145 53.3716 217.083 53.3716H208.121C206.926 53.3716 205.795 52.8397 205.012 51.9137L183.677 25.7443V51.3979C183.677 52.4879 182.797 53.3716 181.735 53.3716H171.466C170.403 53.3716 169.542 52.4879 169.542 51.3979V4.59254C169.542 3.50249 170.403 2.61883 171.466 2.61883H180.428C181.623 2.61883 182.753 3.15095 183.536 4.0773L204.871 30.2557V4.59254C204.871 3.50249 205.716 2.61883 206.778 2.61883H217.083C218.145 2.61883 219.006 3.50249 219.006 4.59254Z" fill="#DA4F81"/>
</svg>
