<svg width="543" height="48" viewBox="0 0 543 48" fill="none" xmlns="http://www.w3.org/2000/svg">
<mask id="mask0_128_525" style="mask-type:luminance" maskUnits="userSpaceOnUse" x="0" y="0" width="543" height="48">
<path d="M543 0H0V48H543V0Z" fill="white"/>
</mask>
<g mask="url(#mask0_128_525)">
<path fill-rule="evenodd" clip-rule="evenodd" d="M23.2236 0.35084C23.3193 0.350844 23.4153 0.350848 23.5118 0.350848C23.6081 0.350848 23.7044 0.350844 23.7998 0.35084C27.7944 0.350633 31.2214 0.350456 33.9627 0.710658C36.8947 1.09593 39.6842 1.96201 41.9444 4.17088C44.2043 6.37975 45.0906 9.10609 45.4847 11.9717C45.8531 14.6508 45.8531 18.0002 45.8529 21.9041V43.0377C45.8529 45.3849 43.9061 47.2875 41.5045 47.2875C39.103 47.2875 37.1564 45.3849 37.1564 43.0377V22.1858C37.1564 17.9209 37.147 15.1496 36.8659 13.1042C36.601 11.1812 36.1698 10.5474 35.7949 10.181C35.42 9.81453 34.7715 9.39296 32.8038 9.13441C30.7112 8.85941 27.8757 8.8504 23.5118 8.8504C19.148 8.8504 16.3125 8.85941 14.2196 9.13441C12.252 9.39296 11.6035 9.81453 11.2286 10.181C10.8537 10.5474 10.4224 11.1812 10.1578 13.1042C9.87643 15.1496 9.8672 17.9209 9.8672 22.1858V43.0377C9.8672 45.3849 7.92042 47.2875 5.51894 47.2875C3.11746 47.2875 1.17067 45.3849 1.17067 43.0377V22.1858C1.17067 22.0917 1.17067 21.9978 1.17066 21.9041C1.17045 18.0002 1.17027 14.6508 1.53883 11.9717C1.93302 9.10609 2.81919 6.37975 5.07924 4.17088C7.33931 1.96201 10.1288 1.09593 13.0609 0.710658C15.8021 0.350456 19.2291 0.350633 23.2236 0.35084Z" fill="#DA4F81"/>
<path fill-rule="evenodd" clip-rule="evenodd" d="M53.0242 7.8701C53.0242 3.90434 56.3137 0.689453 60.3712 0.689453H81.3629C88.7329 0.689453 94.7076 6.52873 94.7076 13.7319V18.5225C94.7076 25.7257 88.7329 31.565 81.3629 31.565H61.7207V43.0405C61.7207 45.3877 59.7739 47.2904 57.3726 47.2904C54.971 47.2904 53.0242 45.3877 53.0242 43.0405V7.8701ZM61.7207 23.0654H81.3629C83.9299 23.0654 86.011 21.0315 86.011 18.5225V13.7319C86.011 11.2229 83.9299 9.189 81.3629 9.189H61.7207V23.0654Z" fill="#DA4F81"/>
<path fill-rule="evenodd" clip-rule="evenodd" d="M400.222 7.76733C400.222 3.80157 403.512 0.58667 407.569 0.58667H428.561C435.931 0.58667 441.906 6.42596 441.906 13.6291V18.4197C441.906 25.6228 435.931 31.4621 428.561 31.4621H408.919V42.9378C408.919 45.2848 406.972 47.1875 404.57 47.1875C402.169 47.1875 400.222 45.2848 400.222 42.9378V7.76733ZM408.919 22.9628H428.561C431.127 22.9628 433.209 20.9288 433.209 18.4197V13.6291C433.209 11.1201 431.127 9.0862 428.561 9.0862H408.919V22.9628Z" fill="#DA4F81"/>
<path fill-rule="evenodd" clip-rule="evenodd" d="M507.68 0.774268L507.475 0.77422C506.243 0.773771 504.923 0.773291 503.81 0.919468C502.511 1.09013 500.867 1.527 499.485 2.87744C498.104 4.22787 497.657 5.83418 497.482 7.10355C497.333 8.19081 497.333 9.48155 497.333 10.6874V10.8858V22.3928C497.333 22.4024 497.333 22.4122 497.333 22.422C497.333 22.4302 497.333 22.4385 497.333 22.4466V42.9381C497.333 45.2853 499.28 47.1879 501.682 47.1879C501.905 47.1879 502.127 47.1712 502.342 47.1393C502.557 47.1712 502.776 47.1879 503.002 47.1879H527.171H527.42C528.566 47.1886 529.538 47.1892 530.413 47.0763C536.402 46.306 541.114 41.7005 541.901 35.848C542.018 34.992 542.016 34.0424 542.016 32.9225V32.6802V32.438C542.016 31.3181 542.018 30.3685 541.901 29.5125C541.477 26.3651 539.919 23.5786 537.639 21.5551C539.439 19.4208 540.517 16.6866 540.517 13.6294C540.517 6.42625 534.542 0.774268 527.171 0.774268H507.68ZM506.03 26.29V38.6884H527.171C528.704 38.6884 529.047 38.6792 529.279 38.6496C531.363 38.3812 533.004 36.7771 533.28 34.7384C533.309 34.5128 533.32 34.1764 533.32 32.6802C533.32 31.1839 533.309 30.8475 533.28 30.6219C533.004 28.5831 531.363 26.5972 529.279 26.3288C529.047 26.299 528.704 26.29 527.171 26.29H506.03ZM527.171 18.1722H506.03V10.8858C506.03 10.2373 506.03 9.7241 506.038 9.28319C506.491 9.27405 507.018 9.27382 507.68 9.27382H527.171C529.738 9.27382 531.82 11.1204 531.82 13.6294C531.82 16.1384 529.738 18.1722 527.171 18.1722Z" fill="#DA4F81"/>
<path fill-rule="evenodd" clip-rule="evenodd" d="M226.955 0.538337C227.041 0.538339 227.124 0.538343 227.208 0.538343C227.293 0.538343 227.379 0.538339 227.463 0.538337C230.998 0.538193 234.033 0.538068 236.493 0.795139C239.106 1.0681 241.637 1.6757 243.872 3.26457C244.859 3.96644 245.743 4.78515 246.501 5.69984C248.214 7.7705 248.869 10.1175 249.164 12.5387C249.442 14.819 249.442 17.6315 249.442 20.908V27.3068C249.442 30.5831 249.442 33.3957 249.164 35.6759C248.869 38.0972 248.214 40.4442 246.501 42.5149C245.743 43.4296 244.859 44.2483 243.872 44.9499C241.637 46.539 239.106 47.1465 236.493 47.4194C234.033 47.6766 230.998 47.6763 227.463 47.6763H226.955C223.421 47.6763 220.387 47.6766 217.927 47.4194C215.314 47.1465 212.781 46.539 210.546 44.9499C209.56 44.2483 208.677 43.4296 207.919 42.5149C206.204 40.4442 205.548 38.0972 205.254 35.6759C204.978 33.3957 204.978 30.5829 204.978 27.3066V21.1426C204.978 21.0641 204.978 20.9858 204.978 20.908C204.978 17.6315 204.978 14.819 205.254 12.5387C205.548 10.1175 206.204 7.7705 207.919 5.69984C208.677 4.78515 209.56 3.96644 210.546 3.26457C212.781 1.6757 215.314 1.0681 217.927 0.795139C220.387 0.538068 223.421 0.538193 226.955 0.538337ZM218.357 9.33852C216.571 9.52503 215.936 9.83638 215.585 10.0854C215.243 10.3299 214.934 10.6151 214.671 10.9337C214.403 11.2582 214.067 11.8473 213.865 13.5018C213.654 15.2429 213.645 17.5659 213.645 21.1426V27.072C213.645 30.6489 213.654 32.9716 213.865 34.7128C214.067 36.3673 214.403 36.9565 214.671 37.281C214.934 37.5997 215.243 37.8848 215.585 38.1291C215.936 38.3781 216.571 38.6895 218.357 38.8761C220.234 39.0724 223.35 39.0789 227.208 39.0789C231.069 39.0789 234.426 39.0724 236.303 38.8761C238.089 38.6895 238.726 38.3781 239.074 38.1291C239.419 37.8848 239.726 37.5997 239.991 37.281C240.259 36.9565 240.595 36.3673 240.795 34.7128C241.008 32.9716 241.015 30.6489 241.015 27.072V21.1426C241.015 17.5659 241.008 15.2429 240.795 13.5018C240.595 11.8473 240.259 11.2582 239.991 10.9337C239.726 10.6151 239.419 10.3299 239.074 10.0854C238.726 9.83638 238.089 9.52503 236.303 9.33852C234.426 9.14222 231.069 9.13583 227.208 9.13583C223.35 9.13583 220.234 9.14222 218.357 9.33852Z" fill="#DA4F81"/>
<path fill-rule="evenodd" clip-rule="evenodd" d="M122.248 0.538337C122.332 0.538339 122.417 0.538343 122.501 0.538343C122.586 0.538343 122.67 0.538339 122.755 0.538337C126.29 0.538193 129.325 0.538068 131.785 0.795139C134.397 1.0681 136.93 1.6757 139.164 3.26457C140.151 3.96644 141.034 4.78515 141.792 5.69984C143.506 7.7705 144.162 10.1175 144.456 12.5387C144.733 14.819 144.733 17.6315 144.733 20.908V27.3068C144.733 30.5831 144.733 33.3957 144.456 35.6759C144.162 38.0972 143.506 40.4442 141.792 42.5149C141.034 43.4296 140.151 44.2483 139.164 44.9499C136.93 46.539 134.397 47.1465 131.785 47.4194C129.325 47.6766 126.29 47.6763 122.755 47.6763H122.248C118.713 47.6763 115.678 47.6766 113.218 47.4194C110.605 47.1465 108.073 46.539 105.839 44.9499C104.852 44.2483 103.968 43.4296 103.211 42.5149C101.496 40.4442 100.841 38.0972 100.546 35.6759C100.269 33.3957 100.269 30.5829 100.269 27.3066V21.1426C100.269 21.0641 100.269 20.9858 100.269 20.908C100.269 17.6315 100.269 14.819 100.546 12.5387C100.841 10.1175 101.496 7.7705 103.211 5.69984C103.968 4.78515 104.852 3.96644 105.839 3.26457C108.073 1.6757 110.605 1.0681 113.218 0.795139C115.678 0.538068 118.713 0.538193 122.248 0.538337ZM113.649 9.33852C111.864 9.52503 111.228 9.83638 110.878 10.0854C110.535 10.3299 110.227 10.6151 109.963 10.9337C109.694 11.2582 109.358 11.8473 109.157 13.5018C108.945 15.2429 108.938 17.5659 108.938 21.1426V27.072C108.938 30.6489 108.945 32.9716 109.157 34.7128C109.358 36.3673 109.694 36.9565 109.963 37.281C110.227 37.5997 110.535 37.8848 110.878 38.1291C111.228 38.3781 111.864 38.6895 113.649 38.8761C115.528 39.0724 118.642 39.0789 122.501 39.0789C126.361 39.0789 129.717 39.0724 131.596 38.8761C133.381 38.6895 134.016 38.3781 134.367 38.1291C134.71 37.8848 135.018 37.5997 135.282 37.281C135.551 36.9565 135.887 36.3673 136.088 34.7128C136.299 32.9716 136.306 30.6489 136.306 27.072V21.1426C136.306 17.5659 136.299 15.2429 136.088 13.5018C135.887 11.8473 135.551 11.2582 135.282 10.9337C135.018 10.6151 134.71 10.3299 134.367 10.0854C134.016 9.83638 133.381 9.52503 131.596 9.33852C129.717 9.14222 126.361 9.13583 122.501 9.13583C118.642 9.13583 115.528 9.14222 113.649 9.33852Z" fill="#DA4F81"/>
<path fill-rule="evenodd" clip-rule="evenodd" d="M371.604 0.556403C371.69 0.55641 371.773 0.556412 371.857 0.556412C371.942 0.556412 372.026 0.55641 372.109 0.556403C375.645 0.556259 378.682 0.556136 381.142 0.81321C383.755 1.08617 386.286 1.69376 388.521 3.28263C389.508 3.98451 390.392 4.80322 391.148 5.71792C392.863 7.78857 393.518 10.1355 393.813 12.5567C394.091 14.837 394.091 17.6495 394.091 20.9259V27.3249C394.091 30.6012 394.091 33.4136 393.813 35.694C393.518 38.1153 392.863 40.4623 391.148 42.533C390.392 43.4475 389.508 44.2664 388.521 44.9682C386.286 46.557 383.755 47.1645 381.142 47.4375C378.682 47.6946 375.645 47.6944 372.109 47.6944H371.604C368.07 47.6944 365.034 47.6946 362.574 47.4375C359.961 47.1645 357.43 46.557 355.195 44.9682C354.209 44.2664 353.326 43.4475 352.568 42.533C350.853 40.4623 350.197 38.1153 349.903 35.694C349.627 33.4136 349.627 30.6012 349.627 27.3249V21.1606C349.627 21.0824 349.627 21.0039 349.627 20.9261C349.627 17.6497 349.627 14.8371 349.903 12.5567C350.197 10.1355 350.853 7.78857 352.568 5.71792C353.326 4.80322 354.209 3.98451 355.195 3.28263C357.43 1.69376 359.961 1.08617 362.574 0.81321C365.034 0.556136 368.07 0.556259 371.604 0.556403ZM363.006 9.35659C361.22 9.5431 360.585 9.85445 360.235 10.1035C359.892 10.348 359.583 10.6331 359.32 10.9517C359.05 11.2763 358.716 11.8654 358.514 13.5199C358.303 15.261 358.294 17.5839 358.294 21.1606V27.0901C358.294 30.6669 358.303 32.9897 358.514 34.7309C358.716 36.3854 359.05 36.9746 359.32 37.2991C359.583 37.6178 359.892 37.9028 360.235 38.1472C360.585 38.3964 361.22 38.7076 363.006 38.8941C364.883 39.0905 367.997 39.0968 371.857 39.0968C375.718 39.0968 379.072 39.0905 380.952 38.8941C382.738 38.7076 383.373 38.3964 383.723 38.1472C384.068 37.9028 384.375 37.6178 384.638 37.2991C384.908 36.9746 385.244 36.3854 385.444 34.7309C385.657 32.9897 385.664 30.6669 385.664 27.0901V21.1606C385.664 17.5839 385.657 15.261 385.444 13.5199C385.244 11.8654 384.908 11.2763 384.638 10.9517C384.375 10.6331 384.068 10.348 383.723 10.1035C383.373 9.85445 382.738 9.5431 380.952 9.35659C379.072 9.16029 375.718 9.1539 371.857 9.1539C367.997 9.1539 364.883 9.16029 363.006 9.35659Z" fill="#DA4F81"/>
<path fill-rule="evenodd" clip-rule="evenodd" d="M469.022 0.562507C469.108 0.562509 469.191 0.562511 469.277 0.562511C469.361 0.562511 469.444 0.562509 469.53 0.562507C473.063 0.562363 476.1 0.562235 478.56 0.819309C481.173 1.09227 483.704 1.69986 485.939 3.28875C486.927 3.99059 487.808 4.80933 488.566 5.724C490.281 7.79468 490.937 10.1416 491.231 12.5628C491.509 14.8431 491.509 17.6556 491.509 20.932V27.331C491.509 30.6073 491.509 33.4199 491.231 35.7003C490.937 38.1214 490.281 40.4684 488.566 42.5391C487.808 43.4536 486.927 44.2725 485.939 44.9743C483.704 46.5631 481.173 47.1706 478.56 47.4436C476.1 47.7007 473.063 47.7007 469.53 47.7005H469.024C465.489 47.7007 462.452 47.7007 459.992 47.4436C457.379 47.1706 454.848 46.5631 452.613 44.9743C451.625 44.2725 450.744 43.4536 449.986 42.5391C448.271 40.4684 447.616 38.1214 447.321 35.7003C447.045 33.4197 447.045 30.6073 447.045 27.331V21.167C447.045 21.0885 447.045 21.01 447.045 20.9322C447.045 17.6558 447.045 14.8432 447.321 12.5628C447.616 10.1416 448.271 7.79468 449.986 5.724C450.744 4.80933 451.625 3.99059 452.613 3.28875C454.848 1.69986 457.379 1.09227 459.992 0.819309C462.452 0.562235 465.489 0.562363 469.022 0.562507ZM460.424 9.36267C458.641 9.5492 458.004 9.86056 457.653 10.1096C457.31 10.354 457.001 10.6392 456.738 10.9578C456.469 11.2824 456.134 11.8715 455.932 13.526C455.721 15.2671 455.713 17.59 455.713 21.167V27.0962C455.713 30.673 455.721 32.996 455.932 34.737C456.134 36.3915 456.469 36.9807 456.738 37.3052C457.001 37.6239 457.31 37.9089 457.653 38.1533C458.004 38.4025 458.641 38.7139 460.424 38.9002C462.304 39.0966 465.416 39.1029 469.277 39.1029C473.137 39.1029 476.491 39.0966 478.37 38.9002C480.156 38.7139 480.791 38.4025 481.142 38.1533C481.486 37.9089 481.793 37.6239 482.056 37.3052C482.326 36.9807 482.662 36.3915 482.863 34.737C483.076 32.996 483.08 30.673 483.08 27.0962V21.167C483.08 17.59 483.076 15.2671 482.863 13.526C482.662 11.8715 482.326 11.2824 482.056 10.9578C481.793 10.6392 481.486 10.354 481.142 10.1096C480.791 9.86056 480.156 9.5492 478.37 9.36267C476.491 9.16639 473.137 9.16001 469.277 9.16001C465.416 9.16001 462.304 9.16639 460.424 9.36267Z" fill="#DA4F81"/>
<path fill-rule="evenodd" clip-rule="evenodd" d="M188.721 38.9956L175.287 9.81394L161.904 38.9956H188.721ZM197.748 38.9956L181.246 3.36898C179.571 -0.0350497 170.964 -0.0643319 169.309 3.36483L152.825 38.9956H151.952C149.55 38.9956 147.604 40.8269 147.604 43.086C147.604 45.345 149.55 47.1765 151.952 47.1765H198.623C201.024 47.1765 202.972 45.345 202.972 43.086C202.972 40.8269 201.024 38.9956 198.623 38.9956H197.748Z" fill="#DA4F81"/>
<path fill-rule="evenodd" clip-rule="evenodd" d="M295.853 8.36457L273.766 23.9278L297.083 39.34C299.072 40.655 299.594 43.2969 298.249 45.2411C296.904 47.1855 294.201 47.6956 292.211 46.3808L267.221 29.8631C266.128 29.1404 265.312 28.2021 264.773 27.1576V42.9369C264.773 45.2841 262.826 47.1868 260.425 47.1868C258.023 47.1868 256.079 45.2841 256.079 42.9369V4.83559C256.079 2.48852 258.023 0.58582 260.425 0.58582C262.826 0.58582 264.773 2.48852 264.773 4.83559V20.6729C265.322 19.6063 266.162 18.6511 267.287 17.924L291.056 1.2731C293.061 -0.02074 295.759 0.517879 297.083 2.47614C298.405 4.4344 297.854 7.07074 295.853 8.36457Z" fill="#DA4F81"/>
<path fill-rule="evenodd" clip-rule="evenodd" d="M302.369 4.84255C302.369 2.49546 304.316 0.592773 306.718 0.592773H342.704C345.103 0.592773 347.052 2.49546 347.052 4.84255C347.052 7.18963 345.103 9.09231 342.704 9.09231H306.718C304.316 9.09231 302.369 7.18963 302.369 4.84255Z" fill="#DA4F81"/>
<path fill-rule="evenodd" clip-rule="evenodd" d="M324.712 0.810547C327.111 0.810547 329.058 2.71323 329.058 5.06031V43.1616C329.058 45.5086 327.111 47.4115 324.712 47.4115C322.308 47.4115 320.362 45.5086 320.362 43.1616V5.06031C320.362 2.71323 322.308 0.810547 324.712 0.810547Z" fill="#DA4F81"/>
</g>
</svg>
