<svg width="302" height="88" viewBox="0 0 302 88" fill="none" xmlns="http://www.w3.org/2000/svg">
<g clip-path="url(#clip0_128_585)">
<path d="M287.928 76.6265C293.853 76.6265 298.05 75.5472 301.177 73.2227V62.6793C297.968 64.9208 294.1 66.3321 288.669 66.3321C279.535 66.3321 275.75 59.1925 275.75 47.9019C275.75 36.0302 280.358 29.9699 288.751 29.9699C293.689 29.9699 298.544 31.7133 301.095 33.3736V22.4151C298.379 20.9208 293.689 19.8416 287.27 19.8416C270.895 19.8416 262.419 31.7133 262.419 48.317C262.501 66.4982 270.812 76.6265 287.928 76.6265ZM207.861 71.8114V61.268C203.912 64.0076 197.164 66.4151 190.992 66.4151C181.611 66.4151 178.073 61.9321 177.497 52.8H208.438V45.9925C208.438 26.9812 200.126 19.8416 187.372 19.8416C171.737 19.8416 164.331 31.8793 164.331 48.4C164.331 67.4114 173.629 76.6265 189.923 76.6265C198.069 76.6265 204.076 74.3849 207.861 71.8114ZM90.4353 20.8378V42.4227H73.3192V20.8378H60.4822V75.5472H73.3192V52.717H90.4353V75.5472H103.272V20.8378H90.4353ZM161.121 65.2529H155.443V20.8378H118.084V25.4868C118.084 38.8529 117.261 56.1208 112.736 65.2529H108.621V88H120.471V75.5472H149.19V88H161.039V65.2529H161.121ZM248.759 75.5472H263.324L242.752 46.0755L260.855 20.8378H247.936L229.833 46.0755V20.8378H216.996V75.5472H229.833V48.6491L248.759 75.5472ZM187.042 29.9699C193.379 29.9699 195.354 35.2831 195.354 42.1736V43.2529H177.497C177.826 34.5359 180.953 29.9699 187.042 29.9699ZM142.606 65.2529H124.503C128.041 57.034 129.029 42.0906 129.029 32.6265V30.9661H142.606V65.2529Z" fill="#DA4F81"/>
<path d="M49.7847 75.5472H36.7008V10.2113H30.8583C20.1608 10.2113 14.5651 15.6075 14.5651 23.6604C14.5651 32.7924 18.4327 37.0264 26.4147 42.4226L32.9978 46.9057L14.0714 75.5472H0L17.0338 49.9774C7.24142 42.9208 1.72807 36.0302 1.72807 24.4075C1.72807 9.87924 11.7673 0 30.776 0H49.7025V75.5472H49.7847Z" fill="#DA4F81"/>
</g>
<defs>
<clipPath id="clip0_128_585">
<rect width="302" height="88" fill="white"/>
</clipPath>
</defs>
</svg>
